<?xml version="1.0" encoding="utf-8"?>
<!-- Generator: Adobe Illustrator 24.1.2, SVG Export Plug-In . SVG Version: 6.00 Build 0)  -->
<svg version="1.1" id="Laag_1" xmlns="http://www.w3.org/2000/svg" xmlns:xlink="http://www.w3.org/1999/xlink" x="0px" y="0px"
	 viewBox="0 0 108.97 74.3" style="enable-background:new 0 0 108.97 74.3;" xml:space="preserve">
<style type="text/css">
	.st0{fill:#FFFFFF;}
</style>
<g>
	<path class="st0" d="M106.67,40.7c2.25-2.97,2.56-4.96,2.14-6.41c-0.54-1.84-2.08-2.21-4.66-4.27c-3.63-2.9-3.27-4.29-7.57-8.93
		c-2.76-2.97-4.44-4.78-6.99-6.21c-4.78-2.68-7.61-1.23-14.17-2.33c-1.44-0.24-2.47-0.51-3.37-0.83C70.66,11.19,64.49,8,59.49,6.14
		c-6.91-2.57-12.76-4.08-17.67-5.05c-1.33-0.26-7.64-1.46-15.73-0.97c-1.45,0.09-3.5,0.87-7.57,2.14C4.15,6.71,2.9,8.16,2.34,9.51
		c-0.58,1.38-0.06,3.92,0.98,8.98c0.14,0.7,0.78,3.74,2.12,7.68c0.76,3.47,2.09,5.78,3.1,7.19c3.36,4.69,7.55,5.67,12.05,7.83
		c-1.85,2.87-3.84,6-4.72,7.28c-1.85,2.67-1.79,1.36-5.16,5.37c-4.62,5.49-3.34,6.29-8.37,13.2c-1.51,2.07-2.72,3.51-2.22,4.82
		c0.35,0.91,1.45,1.54,4.55,2.04c4.66,0.76,7.94,0.27,12.7-0.16c0.39-0.04,0.77-0.07,1.13-0.1c3.3-0.28,5.17-0.34,6.34-0.44
		c0,0,0,0,0.01,0c0.07-0.01,0.15-0.01,0.22-0.02c0.02,0,0.03,0,0.05,0c0.05-0.01,0.11-0.01,0.16-0.02c0.02,0,0.04,0,0.06-0.01
		c0.04,0,0.09-0.01,0.13-0.02c0.03,0,0.05-0.01,0.07-0.01c0.03,0,0.07-0.01,0.1-0.01c0.03,0,0.05-0.01,0.08-0.01
		c0.03,0,0.06-0.01,0.08-0.01c0.03,0,0.05-0.01,0.08-0.02c0.03-0.01,0.05-0.01,0.07-0.02c0.03-0.01,0.05-0.01,0.08-0.02
		c0.02-0.01,0.04-0.01,0.07-0.02c0.02-0.01,0.05-0.01,0.07-0.02c0.02-0.01,0.04-0.01,0.06-0.02c0.02-0.01,0.05-0.01,0.07-0.02
		c0.02-0.01,0.04-0.01,0.06-0.02c0.02-0.01,0.04-0.02,0.07-0.03c0.02-0.01,0.04-0.02,0.05-0.02c0.02-0.01,0.04-0.02,0.06-0.03
		c0.02-0.01,0.03-0.02,0.05-0.03c0.02-0.01,0.04-0.02,0.06-0.03c0.02-0.01,0.03-0.02,0.05-0.03c0.02-0.01,0.04-0.02,0.06-0.03
		c0.02-0.01,0.03-0.02,0.05-0.03c0.02-0.01,0.03-0.02,0.05-0.04c0.02-0.01,0.04-0.03,0.06-0.04c0.02-0.01,0.03-0.02,0.05-0.03
		c0.02-0.02,0.05-0.04,0.07-0.06c0.01-0.01,0.02-0.02,0.04-0.03c0.03-0.03,0.07-0.06,0.11-0.09c2.16-1.96,0.83-4.23,1.45-12.97
		c0.15-2.17,0.56-6.57,0.74-11.46c1.8,2.25,2.15,3.35,3.85,4.44c0.02,0.01,0.03,0.02,0.04,0.03c0.14,0.09,0.28,0.17,0.43,0.26
		c0.62,0.35,1.25,0.62,1.89,0.84c-0.9,2.43-1.99,5.87-3.36,10.82c-1.13,4.07-1.85,7.03-0.51,8.33c0.07,0.07,0.14,0.14,0.23,0.2
		c0.77,0.55,1.73,0.44,3.18,0.3c10.19-0.95,12.03,0.02,14.03-1.81c0.68-0.63,1.14-2.04,2.05-4.87c0.9-2.8,1.75-6.36,1.88-10.65
		c0.01-0.18,0.01-0.36,0.02-0.53c0-0.05,0-0.1,0-0.15c0-0.13,0.01-0.26,0.01-0.38c0-0.05,0-0.1,0-0.14c0-0.13,0-0.25,0.01-0.37
		c0-0.03,0-0.07,0-0.1c0.01-1.07-0.05-1.88-0.25-2.6c4.19-0.53,7.54,0.12,10.73,1.09c-0.24,0.97-0.48,2.06-0.73,3.29
		c-0.58,2.81-1.3,6.81-1.83,11.71c-0.41,1.33-0.56,1.76-0.37,2.34c0.41,1.21,2.01,2.16,4.02,2.7l0,0c0,0,0,0,0,0
		c0.66,0.18,1.36,0.31,2.08,0.39c0.01,0,0.03,0,0.04,0c0.23,0.02,0.46,0.04,0.69,0.06c0.01,0,0.02,0,0.03,0
		c0.48,0.03,0.96,0.04,1.44,0.02c0.03,0,0.05,0,0.08,0c0.2-0.01,0.4-0.02,0.6-0.04c0.05,0,0.09-0.01,0.14-0.01
		c0.2-0.02,0.39-0.04,0.58-0.07c0.03,0,0.06-0.01,0.1-0.01c0.23-0.03,0.45-0.08,0.67-0.12c0.02,0,0.03-0.01,0.05-0.01
		c0.19-0.04,0.38-0.09,0.57-0.14c0.06-0.02,0.11-0.03,0.17-0.05c0.15-0.04,0.29-0.09,0.44-0.14c0.06-0.02,0.12-0.04,0.18-0.06
		c0.16-0.06,0.31-0.13,0.46-0.2c0.03-0.01,0.07-0.03,0.1-0.04c0.18-0.09,0.35-0.18,0.52-0.28c0.04-0.03,0.08-0.05,0.13-0.08
		c0.12-0.08,0.24-0.16,0.35-0.24c0.05-0.04,0.1-0.08,0.15-0.12c0.1-0.08,0.2-0.17,0.3-0.26c0.04-0.04,0.09-0.08,0.13-0.12
		c0.13-0.13,0.26-0.27,0.37-0.41c1.08-1.39,1.02-3.4,0.91-7.42c-0.02-0.84-0.05-0.65-0.99-7.34c-0.01-0.06-0.02-0.11-0.03-0.17
		c2.9,0.38,6.19,0.32,10.19-0.59c0,0,10.11-2.32,18.56-11.07c0.03-0.03,0.05-0.06,0.08-0.09c0.29-0.3,0.57-0.61,0.86-0.92
		c0.06-0.06,0.11-0.12,0.17-0.18c0.26-0.29,0.51-0.59,0.77-0.89c0.07-0.08,0.14-0.16,0.21-0.24
		C106.06,41.48,106.37,41.09,106.67,40.7z"/>
	<path class="st0" d="M103.07,67.81c1.23-1.91,0.73-4.64-0.21-6.24c-1.77-3.01-5.7-3.03-7.71-3.05c-2.7-0.02-4.66,0.84-5.23,1.1
		c-0.45,0.21-2.63,1.23-4.07,2.62c-0.23-0.23-0.42-0.35-0.58-0.35c-1.37-0.05-2.76,1.83-5.53,5.59c-1.75,2.38-2.63,3.6-2.35,4.54
		c0.19,0.66,0.89,1.14,6.14,1.42c7.48,0.4,8.05-0.48,8.19-0.85c0.18-0.46-0.06-1.06-0.61-2.04c2.03,0.37,3.98,0.61,5.14,0.75
		c3.7,0.45,8.68,1.06,9.17-0.39C105.67,70.12,104.49,68.92,103.07,67.81z"/>
</g>
</svg>
