<?xml version="1.0" encoding="utf-8"?>
<!-- Generator: Adobe Illustrator 24.1.2, SVG Export Plug-In . SVG Version: 6.00 Build 0)  -->
<svg version="1.1" id="Laag_1" xmlns="http://www.w3.org/2000/svg" xmlns:xlink="http://www.w3.org/1999/xlink" x="0px" y="0px"
	 viewBox="0 0 401.81 200.11" style="enable-background:new 0 0 401.81 200.11;" xml:space="preserve">
<style type="text/css">
	.st0{fill:#122824;}
</style>
<g>
	<g>
		<path class="st0" d="M0.4,49.93c-0.13-5.33-2.73-12.75,7.29-12.75h44.76c5.86,0,6.64,2.6,6.64,6.77v5.46
			c0.13,4.42-2.21,6.25-7.03,6.12c-6.51-0.13-17.96-0.13-29.15-0.13l-0.13,18.22c8.46,0,21.6,0,24.72-0.13
			c2.86-0.13,5.47,1.3,5.47,5.07v5.86c0,4.16-1.3,4.81-5.07,4.94c-3.64,0-16.66-0.13-25.24,0c0,6.9,0,12.62,0.13,18.22
			c9.11,0,25.63-0.13,29.67-0.39c4.68-0.26,6.77,1.82,6.77,6.25v7.16c0,4.16-0.91,5.07-6.77,5.07H7.81c-7.55,0-7.68-6.38-7.55-11.32
			C0.66,101.84,0.4,53.57,0.4,49.93z"/>
		<path class="st0" d="M72.09,117.07c1.95-3.38,14.7-24.46,21.6-35.65c-7.68-13.4-18.48-31.88-21.08-36.04
			c-1.56-2.86-2.6-8.2,2.6-8.2h10.93c5.47,0,7.16,3.51,8.33,6.51c1.82,4.03,11.06,21.73,13.4,26.54h0.78
			c3.38-6.51,11.71-22.51,13.53-27.85c0.91-3.12,2.47-5.2,8.98-5.2h9.76c4.29,0,6.38,4.03,4.42,8.07
			c-1.82,3.64-14.7,24.72-21.99,36.3l20.95,35.91c1.82,2.86,2.86,8.2-2.6,8.2h-10.93c-5.34,0-7.16-3.51-8.2-6.51
			c-1.56-3.51-10.02-20.43-13.27-26.54h-0.78c-3.64,6.77-11.71,22.64-13.66,27.85c-1.17,2.99-2.6,5.2-9.11,5.2h-9.76
			C71.83,125.66,69.88,121.1,72.09,117.07z"/>
		<path class="st0" d="M160.44,108.48c0.39-16,0.39-45.02,0.39-54.39c0-3.9-0.52-7.68-0.26-11.84c0.39-2.99,1.69-5.07,6.77-5.07
			h8.72c5.99,0,6.9,4.16,7.29,8.07c0.13,1.43,0.13,3.9,0,7.03c-0.13,11.06-0.78,41.9-0.52,55.17c8.72,0.13,24.2,0,28.11-0.39
			c4.68-0.52,6.77,2.34,6.77,6.64c0,2.21,0,4.29-0.13,6.51c0.13,4.16-0.91,5.47-6.64,5.47h-42.94c-5.99,0-7.16-4.16-7.42-8.2
			C160.31,115.51,160.44,112.25,160.44,108.48z"/>
		<path class="st0" d="M9.1,0c5.95,0,9.25,4.48,9.19,10.31c-0.09,5.83-3.12,10.31-9.07,10.31c-6.22,0-9.28-4.45-9.22-10.31
			C0.06,4.51,2.92,0,9.1,0z M13.11,10.28c0-3.24-0.91-6.1-3.98-6.1c-3.15,0-4.06,2.86-4.04,6.1c0.03,3.18,0.88,6.16,4.04,6.16
			C12.26,16.44,13.14,13.43,13.11,10.28z"/>
		<path class="st0" d="M22.15,2.86c0-1.21-0.38-2.56,1.74-2.56h2.59l7.95,10.63h0.24c-0.06-1.33-0.21-9.01-0.21-9.37
			c-0.03-0.62,0.03-1.27,1.71-1.27h1.8c1.71,0,1.71,1.41,1.68,2.53c-0.03,1.24-0.29,12.84-0.15,14.61c0.06,1.21,0.65,2.89-1.62,2.89
			h-1.8c-1.47,0-1.68-1.24-1.74-2.18c0-1.15-5.71-8.22-7.22-10.52h-0.27c0,1.97,0.32,9.13,0.38,9.81c0.06,1.21,0.65,2.89-1.62,2.89
			h-1.89c-1.71,0-1.74-1.44-1.71-2.56C22.15,14.94,22.18,3.68,22.15,2.86z"/>
		<path class="st0" d="M44.36,3.18c-0.03-1.21-0.62-2.89,1.65-2.89h5.42c7.07,0,10.16,4.18,10.05,10.02
			c-0.12,5.8-2.89,10.02-9.96,10.02h-5.54c-1.71,0-1.74-1.44-1.74-2.56C44.36,14.94,44.36,4.01,44.36,3.18z M51.35,16.44
			c4.39,0,5.04-3.06,5.04-6.19c-0.03-3.18-0.91-6.07-5.04-6.07h-1.91c-0.06,2.83-0.06,8.93-0.06,12.26H51.35z"/>
		<path class="st0" d="M65.37,3.18c-0.03-1.21-0.62-2.89,1.65-2.89h10.13c1.33,0,1.5,0.59,1.5,1.53v1.24c0.03,1-0.5,1.41-1.59,1.38
			c-1.47-0.03-4.07-0.03-6.6-0.03l-0.03,4.12c1.91,0,4.89,0,5.6-0.03c0.65-0.03,1.24,0.29,1.24,1.15v1.33
			c0,0.94-0.29,1.09-1.15,1.12c-0.82,0-3.77-0.03-5.71,0c0,1.56,0,2.86,0.03,4.12c2.06,0,5.8-0.03,6.72-0.09
			c1.06-0.06,1.53,0.41,1.53,1.41v1.62c0,0.94-0.21,1.15-1.53,1.15h-10.1c-1.71,0-1.74-1.44-1.71-2.56
			C65.43,14.94,65.37,4.01,65.37,3.18z"/>
		<path class="st0" d="M82.86,3.15c0-1.21-0.47-2.86,1.77-2.86h6.1c5.13,0,7.84,2.83,7.75,6.86c-0.06,2.74-1.62,4.63-3.71,5.6
			l2.36,3.18c0.53,0.85,1.09,0.91,1.91,0.91c0.65,2.86-0.56,3.77-2.59,3.77c-1.86,0-2.65-0.97-3.42-2.39l-2.77-4.6h-2.39
			c-0.03,0.71-0.09,3.68,0,4.66c0.12,1.53-0.29,2.03-1.56,2.03h-1.86c-1.71,0-1.74-1.44-1.71-2.56
			C82.84,14.94,82.89,4.01,82.86,3.15z M90.17,10.4c2.15,0,3.45-1.09,3.45-3.27c0-1.56-0.88-3.24-3.39-3.24h-2.47
			c-0.06,1.53-0.03,5.39-0.03,6.51H90.17z"/>
		<path class="st0" d="M102.87,2.86c0-1.21-0.38-2.56,1.74-2.56h2.59l7.95,10.63h0.24c-0.06-1.33-0.21-9.01-0.21-9.37
			c-0.03-0.62,0.03-1.27,1.71-1.27h1.8c1.71,0,1.71,1.41,1.68,2.53c-0.03,1.24-0.29,12.84-0.15,14.61c0.06,1.21,0.65,2.89-1.62,2.89
			h-1.8c-1.47,0-1.68-1.24-1.74-2.18c0-1.15-5.71-8.22-7.22-10.52h-0.27c0,1.97,0.32,9.13,0.38,9.81c0.06,1.21,0.65,2.89-1.62,2.89
			h-1.89c-1.71,0-1.74-1.44-1.71-2.56C102.87,14.94,102.9,3.68,102.87,2.86z"/>
		<path class="st0" d="M125.08,3.18c-0.03-1.21-0.62-2.89,1.65-2.89h10.13c1.33,0,1.5,0.59,1.5,1.53v1.24c0.03,1-0.5,1.41-1.59,1.38
			c-1.47-0.03-4.07-0.03-6.6-0.03l-0.03,4.12c1.91,0,4.89,0,5.6-0.03c0.65-0.03,1.24,0.29,1.24,1.15v1.33
			c0,0.94-0.29,1.09-1.15,1.12c-0.82,0-3.77-0.03-5.71,0c0,1.56,0,2.86,0.03,4.12c2.06,0,5.8-0.03,6.72-0.09
			c1.06-0.06,1.53,0.41,1.53,1.41v1.62c0,0.94-0.21,1.15-1.53,1.15h-10.1c-1.71,0-1.74-1.44-1.71-2.56
			C125.14,14.94,125.08,4.01,125.08,3.18z"/>
		<path class="st0" d="M143.49,2.47c0.06-0.68,0-2.18,1.59-2.18h3.45c0.65,0,1.62,0.15,1.89,1.3c0.27,1,3.09,10.58,3.09,10.58h0.24
			c0,0,3.09-9.81,3.33-10.61c0.24-1.24,1.24-1.27,2.03-1.27h3.36c1.74,0,1.68,1.41,1.71,2.53c0.12,1.91,1,12.31,1.27,15.14
			c0.06,1.21,0.68,2.36-1.65,2.36h-1.68c-1.83,0-1.56-1.09-1.65-2.18c-0.12-1.41-0.56-10.13-0.77-12.58h-0.21
			c-0.5,1.83-2.83,9.25-3.09,10.46c-0.21,0.85-0.74,1.09-1.3,1.09h-2.83c-0.88,0-1.36-0.62-1.47-1.09
			c-0.32-1.44-2.65-8.81-3.06-10.4h-0.18l-0.5,12.61c-0.06,1.24,0.24,2.09-1.53,2.09h-1.86c-1.71,0-1.86-0.85-1.71-1.94
			C142.28,15.55,143.34,3.86,143.49,2.47z"/>
		<path class="st0" d="M169.73,3.18c-0.03-1.21-0.62-2.89,1.65-2.89h10.13c1.33,0,1.5,0.59,1.5,1.53v1.24c0.03,1-0.5,1.41-1.59,1.38
			c-1.47-0.03-4.07-0.03-6.6-0.03l-0.03,4.12c1.91,0,4.89,0,5.6-0.03c0.65-0.03,1.24,0.29,1.24,1.15v1.33
			c0,0.94-0.29,1.09-1.15,1.12c-0.82,0-3.77-0.03-5.71,0c0,1.56,0,2.86,0.03,4.12c2.06,0,5.8-0.03,6.72-0.09
			c1.06-0.06,1.53,0.41,1.53,1.41v1.62c0,0.94-0.21,1.15-1.53,1.15h-10.1c-1.71,0-1.74-1.44-1.71-2.56
			C169.79,14.94,169.73,4.01,169.73,3.18z"/>
		<path class="st0" d="M187.23,3.15c0-1.21-0.47-2.86,1.77-2.86h6.1c5.13,0,7.84,2.83,7.75,6.86c-0.06,2.74-1.62,4.63-3.71,5.6
			l2.36,3.18c0.53,0.85,1.09,0.91,1.91,0.91c0.65,2.86-0.56,3.77-2.59,3.77c-1.86,0-2.65-0.97-3.42-2.39l-2.77-4.6h-2.39
			c-0.03,0.71-0.09,3.68,0,4.66c0.12,1.53-0.29,2.03-1.56,2.03h-1.86c-1.71,0-1.74-1.44-1.71-2.56
			C187.2,14.94,187.26,4.01,187.23,3.15z M194.54,10.4c2.15,0,3.45-1.09,3.45-3.27c0-1.56-0.88-3.24-3.39-3.24h-2.47
			c-0.06,1.53-0.03,5.39-0.03,6.51H194.54z"/>
		<path class="st0" d="M206.82,16.64c0.29-0.94,0.88-1.5,0.88-1.5s2,1.47,5.27,1.47c1.8,0,2.92-0.88,2.89-2.18
			c-0.03-0.97-0.85-1.68-2.77-2.15l-2.15-0.53c-2.71-0.68-4.65-2.09-4.77-5.24C206.03,2.53,209.06,0,213.54,0
			c2.45,0,4.33,0.59,5.07,0.94c1.3,0.59,1.68,1.24,1,3.12c-0.27,0.71-0.74,1.27-0.74,1.27s-2.24-1.33-4.98-1.33
			c-1.8,0-2.74,0.85-2.71,2.12c0.03,1.09,1.06,1.53,2.47,1.91l2.24,0.59c3.83,1.06,5.01,2.98,5.13,5.48
			c0.18,4.21-3.3,6.51-7.84,6.51c-2.27,0-4.27-0.53-4.98-0.85C206.53,19.09,206.32,18.21,206.82,16.64z"/>
		<path class="st0" d="M223.14,2.62c-0.27-1.24-0.41-2.33,1.06-2.33h1.65c1.71,0,1.89,1.27,2.03,1.89
			c0.38,1.71,3.18,12.7,3.65,14.82h0.18c0.5-2.59,3.36-13.87,3.56-14.76c0.24-1.24,0.27-1.94,1.83-1.94h2.21c1.15,0,1.3,1.15,1,2.21
			c-0.8,2.92-4.3,14.7-4.57,15.79c-0.32,1.21-0.56,2.03-2.45,2.03h-3.65c-1.59,0-2.06-0.82-2.33-1.94
			C227.03,17.29,223.58,4.48,223.14,2.62z"/>
		<path class="st0" d="M243.88,3.18c-0.03-1.21-0.62-2.89,1.65-2.89h10.13c1.33,0,1.5,0.59,1.5,1.53v1.24c0.03,1-0.5,1.41-1.59,1.38
			c-1.47-0.03-4.07-0.03-6.6-0.03l-0.03,4.12c1.92,0,4.89,0,5.6-0.03c0.65-0.03,1.24,0.29,1.24,1.15v1.33
			c0,0.94-0.29,1.09-1.15,1.12c-0.83,0-3.77-0.03-5.72,0c0,1.56,0,2.86,0.03,4.12c2.06,0,5.8-0.03,6.72-0.09
			c1.06-0.06,1.53,0.41,1.53,1.41v1.62c0,0.94-0.21,1.15-1.53,1.15h-10.1c-1.71,0-1.74-1.44-1.71-2.56
			C243.94,14.94,243.88,4.01,243.88,3.18z"/>
		<path class="st0" d="M261.38,3.15c0-1.21-0.47-2.86,1.77-2.86h6.1c5.13,0,7.84,2.83,7.75,6.86c-0.06,2.74-1.62,4.63-3.71,5.6
			l2.36,3.18c0.53,0.85,1.09,0.91,1.91,0.91c0.65,2.86-0.56,3.77-2.59,3.77c-1.86,0-2.65-0.97-3.42-2.39l-2.77-4.6h-2.39
			c-0.03,0.71-0.09,3.68,0,4.66c0.12,1.53-0.3,2.03-1.56,2.03h-1.86c-1.71,0-1.74-1.44-1.71-2.56
			C261.35,14.94,261.41,4.01,261.38,3.15z M268.68,10.4c2.15,0,3.45-1.09,3.45-3.27c0-1.56-0.88-3.24-3.39-3.24h-2.47
			c-0.06,1.53-0.03,5.39-0.03,6.51H268.68z"/>
		<path class="st0" d="M281.41,3.18c-0.03-1.21-0.62-2.89,1.65-2.89h10.13c1.33,0,1.5,0.59,1.5,1.53v1.24c0.03,1-0.5,1.41-1.59,1.38
			c-1.47-0.03-4.07-0.03-6.6-0.03l-0.03,4.12c1.92,0,4.89,0,5.6-0.03c0.65-0.03,1.24,0.29,1.24,1.15v1.33
			c0,0.94-0.29,1.09-1.15,1.12c-0.83,0-3.77-0.03-5.72,0c0,1.56,0,2.86,0.03,4.12c2.06,0,5.8-0.03,6.72-0.09
			c1.06-0.06,1.53,0.41,1.53,1.41v1.62c0,0.94-0.21,1.15-1.53,1.15h-10.1c-1.71,0-1.74-1.44-1.71-2.56
			C281.47,14.94,281.41,4.01,281.41,3.18z"/>
		<path class="st0" d="M298.88,2.86c0-1.21-0.38-2.56,1.74-2.56h2.59l7.95,10.63h0.24c-0.06-1.33-0.21-9.01-0.21-9.37
			c-0.03-0.62,0.03-1.27,1.71-1.27h1.8c1.71,0,1.71,1.41,1.68,2.53c-0.03,1.24-0.29,12.84-0.15,14.61c0.06,1.21,0.65,2.89-1.62,2.89
			h-1.8c-1.47,0-1.68-1.24-1.74-2.18c0-1.15-5.72-8.22-7.22-10.52h-0.27c0,1.97,0.32,9.13,0.38,9.81c0.06,1.21,0.65,2.89-1.62,2.89
			h-1.89c-1.71,0-1.74-1.44-1.71-2.56C298.88,14.94,298.91,3.68,298.88,2.86z"/>
		<path class="st0" d="M321.35,3.18c-0.03-1.21-0.65-2.89,1.62-2.89h1.89c1.71,0,1.74,1.41,1.71,2.53
			c-0.09,2.45-0.21,12.84-0.09,14.61c0.09,1.21,0.68,2.89-1.59,2.89h-1.86c-1.74,0-1.77-1.44-1.74-2.56
			C321.41,14.94,321.35,5.33,321.35,3.18z"/>
		<path class="st0" d="M330.66,10.31C330.72,4.45,333.96,0,340.09,0c3.48,0,5.39,1.15,5.98,1.56c0.77,0.47,1.33,1.33,0.32,2.86
			c-0.56,0.82-1.21,1.21-1.21,1.21s-1.56-1.36-4.66-1.36c-2.92,0-4.89,2.36-4.89,5.95c0,4.18,2.03,6.16,4.51,6.16
			c3.77,0,3.53-4.21,3.53-4.21l-3.18,0.06c-0.5,0-0.68-0.35-0.68-0.83l-0.03-1.74c0-0.41,0.32-0.71,0.91-0.71h6.07
			c1.3,0,1.56,0.29,1.5,1.41c-0.03,1.24-0.24,6.33-0.12,8.13c0.09,1.24-0.21,1.83-1.21,1.83h-1.47c-0.88,0-1.33-0.47-1.33-1.44
			c0-0.32,0.12-1.38,0.06-1.8h-0.27c0,0-0.74,3.54-5.16,3.54C333.81,20.62,330.6,16.14,330.66,10.31z"/>
		<path class="st0" d="M352.69,3.18c-0.03-1.21-0.65-2.89,1.62-2.89h1.89c1.71,0,1.74,1.41,1.71,2.53
			c-0.09,2.45-0.21,12.84-0.09,14.61c0.09,1.21,0.68,2.89-1.59,2.89h-1.86c-1.74,0-1.77-1.44-1.74-2.56
			C352.75,14.94,352.69,5.33,352.69,3.18z"/>
		<path class="st0" d="M362.92,2.86c0-1.21-0.38-2.56,1.74-2.56h2.59l7.95,10.63h0.24c-0.06-1.33-0.21-9.01-0.21-9.37
			c-0.03-0.62,0.03-1.27,1.71-1.27h1.8c1.71,0,1.71,1.41,1.68,2.53c-0.03,1.24-0.29,12.84-0.15,14.61c0.06,1.21,0.65,2.89-1.62,2.89
			h-1.8c-1.47,0-1.68-1.24-1.74-2.18c0-1.15-5.72-8.22-7.22-10.52h-0.27c0,1.97,0.32,9.13,0.38,9.81c0.06,1.21,0.65,2.89-1.62,2.89
			h-1.89c-1.71,0-1.74-1.44-1.71-2.56C362.92,14.94,362.95,3.68,362.92,2.86z"/>
		<path class="st0" d="M384.18,10.31C384.24,4.45,387.48,0,393.61,0c3.48,0,5.39,1.15,5.98,1.56c0.77,0.47,1.33,1.33,0.32,2.86
			c-0.56,0.82-1.21,1.21-1.21,1.21s-1.56-1.36-4.65-1.36c-2.92,0-4.89,2.36-4.89,5.95c0,4.18,2.03,6.16,4.51,6.16
			c3.77,0,3.53-4.21,3.53-4.21l-3.18,0.06c-0.5,0-0.68-0.35-0.68-0.83l-0.03-1.74c0-0.41,0.32-0.71,0.91-0.71h6.07
			c1.3,0,1.56,0.29,1.5,1.41c-0.03,1.24-0.24,6.33-0.12,8.13c0.09,1.24-0.21,1.83-1.21,1.83H399c-0.88,0-1.33-0.47-1.33-1.44
			c0-0.32,0.12-1.38,0.06-1.8h-0.27c0,0-0.74,3.54-5.16,3.54C387.34,20.62,384.13,16.14,384.18,10.31z"/>
		<path class="st0" d="M361.21,35.87c-27.33,0-39.95,19.91-40.21,45.54c-0.26,25.89,13.27,45.54,40.73,45.54
			c26.28,0,39.69-19.78,40.08-45.54C402.07,55.65,387.49,35.87,361.21,35.87z M330.29,73.22c-2.33-0.63-4.61-2.88-4.39-4.77
			c0.29-2.46,4.79-3.71,9.22-4.95c4.21-1.17,7.88-2.19,8.58-1.02C344.99,64.65,336.72,74.95,330.29,73.22z M361.34,108.48
			c-13.92,0-17.7-13.14-17.83-27.19c-0.06-6.53,0.75-12.71,2.97-17.49c1.86,1.57,4.75,2.58,7.99,2.58c4.03,0,7.5-1.56,9.15-3.81
			c1.86,0.72,4.09,1.14,6.49,1.14c1.93,0,3.74-0.27,5.34-0.75c2.51,4.9,3.45,11.42,3.45,18.34
			C379.03,95.21,375.13,108.48,361.34,108.48z M392.13,73.25c-6.44,1.74-14.7-8.56-13.41-10.73c0.7-1.18,4.37-0.16,8.58,1.02
			c4.43,1.23,8.93,2.49,9.22,4.95C396.74,70.37,394.45,72.63,392.13,73.25z"/>
		<path class="st0" d="M267.39,35.87c-27.33,0-39.95,19.91-40.21,45.54c-0.26,25.89,13.27,45.54,40.73,45.54
			c26.28,0,39.69-19.78,40.08-45.54C308.25,55.65,293.68,35.87,267.39,35.87z M236.48,73.22c-2.33-0.63-4.61-2.88-4.39-4.77
			c0.29-2.46,4.79-3.71,9.22-4.95c4.21-1.17,7.88-2.19,8.58-1.02C251.18,64.65,242.91,74.95,236.48,73.22z M267.52,108.48
			c-13.92,0-17.7-13.14-17.83-27.19c-0.06-6.53,0.75-12.71,2.97-17.49c1.86,1.57,4.75,2.58,7.99,2.58c4.03,0,7.5-1.56,9.15-3.81
			c1.86,0.72,4.09,1.14,6.49,1.14c1.93,0,3.74-0.27,5.34-0.75c2.51,4.9,3.45,11.42,3.45,18.34
			C285.22,95.21,281.32,108.48,267.52,108.48z M298.31,73.25c-6.44,1.74-14.7-8.56-13.41-10.73c0.7-1.18,4.37-0.16,8.58,1.02
			c4.43,1.23,8.93,2.49,9.22,4.95C302.93,70.37,300.64,72.63,298.31,73.25z"/>
		<path class="st0" d="M399.84,142.21H1.97c-1.09,0-1.97,0.88-1.97,1.97s0.88,1.97,1.97,1.97h397.87c1.09,0,1.97-0.88,1.97-1.97
			S400.93,142.21,399.84,142.21z"/>
	</g>
	<g>
		<g>
			<path class="st0" d="M149.1,184.28v0.55c0,0.86,0.21,1.53,0.63,2.01c0.42,0.48,0.98,0.72,1.66,0.72c0.71,0,1.45-0.17,2.22-0.5
				c0.76-0.34,1.53-0.78,2.28-1.33c0.76-0.55,1.68-1.3,2.78-2.23v1.33c-1.65,1.98-3.19,3.5-4.63,4.56
				c-1.44,1.06-2.91,1.58-4.39,1.58c-1.3,0-2.32-0.5-3.08-1.51c-0.76-1.01-1.14-2.38-1.14-4.13c0-1.53,0.36-2.92,1.07-4.16
				c0.71-1.25,1.88-2.56,3.5-3.94c1.11-0.95,2.21-1.66,3.3-2.14c1.09-0.48,2.07-0.72,2.93-0.72c0.68,0,1.23,0.16,1.63,0.47
				c0.4,0.31,0.6,0.78,0.6,1.41c0,0.92-0.34,1.83-1.03,2.74s-1.73,1.81-3.14,2.71C152.88,182.58,151.15,183.45,149.1,184.28z
				 M149.32,182.86c1.31-0.51,2.43-1.14,3.37-1.9c0.93-0.76,1.62-1.48,2.06-2.17c0.44-0.69,0.67-1.2,0.67-1.52
				c0-0.33-0.15-0.5-0.46-0.5c-0.26,0-0.69,0.17-1.28,0.5c-0.59,0.34-1.19,0.77-1.79,1.31c-0.6,0.54-1.15,1.17-1.63,1.9
				C149.78,181.2,149.46,182,149.32,182.86z M155.41,170.51c-0.25,0-0.47-0.08-0.68-0.25c-0.2-0.17-0.31-0.35-0.31-0.56
				c0-0.54,0.76-1.92,2.27-4.13c0.66-0.92,1.21-1.53,1.65-1.82c0.44-0.3,1.07-0.45,1.89-0.45c1.08,0,1.62,0.37,1.62,1.11
				c0,0.42-0.47,1.12-1.41,2.1c-0.94,0.98-1.94,1.89-3.02,2.73C156.36,170.09,155.69,170.51,155.41,170.51z"/>
			<path class="st0" d="M162.17,184.28v0.55c0,0.86,0.21,1.53,0.63,2.01c0.42,0.48,0.98,0.72,1.66,0.72c0.71,0,1.45-0.17,2.22-0.5
				c0.76-0.34,1.53-0.78,2.28-1.33c0.76-0.55,1.68-1.3,2.78-2.23v1.33c-1.65,1.98-3.19,3.5-4.63,4.56
				c-1.44,1.06-2.91,1.58-4.39,1.58c-1.3,0-2.32-0.5-3.08-1.51c-0.76-1.01-1.14-2.38-1.14-4.13c0-1.53,0.36-2.92,1.07-4.16
				c0.71-1.25,1.88-2.56,3.5-3.94c1.11-0.95,2.21-1.66,3.3-2.14c1.09-0.48,2.07-0.72,2.93-0.72c0.68,0,1.23,0.16,1.63,0.47
				c0.4,0.31,0.6,0.78,0.6,1.41c0,0.92-0.34,1.83-1.03,2.74s-1.73,1.81-3.14,2.71C165.95,182.58,164.22,183.45,162.17,184.28z
				 M162.38,182.86c1.31-0.51,2.43-1.14,3.37-1.9c0.93-0.76,1.62-1.48,2.06-2.17c0.44-0.69,0.67-1.2,0.67-1.52
				c0-0.33-0.15-0.5-0.46-0.5c-0.26,0-0.69,0.17-1.28,0.5c-0.59,0.34-1.19,0.77-1.79,1.31c-0.6,0.54-1.15,1.17-1.63,1.9
				C162.84,181.2,162.53,182,162.38,182.86z M168.48,170.51c-0.25,0-0.47-0.08-0.68-0.25c-0.2-0.17-0.31-0.35-0.31-0.56
				c0-0.54,0.76-1.92,2.27-4.13c0.66-0.92,1.21-1.53,1.65-1.82c0.44-0.3,1.07-0.45,1.89-0.45c1.08,0,1.62,0.37,1.62,1.11
				c0,0.42-0.47,1.12-1.41,2.1c-0.94,0.98-1.94,1.89-3.02,2.73C169.43,170.09,168.76,170.51,168.48,170.51z"/>
			<path class="st0" d="M186.46,179.54c-2.56,2.86-3.85,4.84-3.85,5.97c0,0.63,0.25,0.94,0.76,0.94c0.42,0,0.97-0.22,1.65-0.67
				c0.68-0.44,1.74-1.23,3.18-2.37v1.51c-2.07,2.04-3.66,3.51-4.76,4.41c-1.11,0.9-2.01,1.36-2.71,1.36c-1.19,0-1.79-0.79-1.79-2.36
				c0-0.47,0.07-0.92,0.22-1.38c0.15-0.45,0.35-0.92,0.6-1.41c0.25-0.49,0.64-1.19,1.17-2.1c0.52-0.91,1.13-1.94,1.81-3.09
				c-0.83,0.42-1.87,1.26-3.12,2.51c-0.82,0.79-1.51,1.53-2.08,2.24c-0.57,0.71-1.18,1.49-1.82,2.36c-0.65,0.87-1.12,1.45-1.42,1.75
				c-0.3,0.3-0.6,0.45-0.91,0.45c-0.47,0-0.9-0.49-1.29-1.46c-0.39-0.98-0.59-2.11-0.59-3.41c0-0.8,0.09-1.43,0.27-1.88
				c0.18-0.45,0.54-1.09,1.08-1.92c1.01-1.54,1.87-2.68,2.6-3.4c0.73-0.72,1.43-1.08,2.1-1.08c0.47,0,0.84,0.08,1.13,0.24
				c0.28,0.16,0.43,0.41,0.43,0.74c0,0.15-0.04,0.3-0.13,0.46c-0.09,0.16-0.19,0.31-0.3,0.44s-0.34,0.39-0.69,0.76
				c-2.3,2.55-3.45,4.2-3.45,4.96c0,0.42,0.14,0.63,0.41,0.63c0.18,0,0.51-0.28,1.02-0.84c0.5-0.56,1.15-1.3,1.94-2.21
				c0.79-0.91,1.73-1.86,2.82-2.85c1.09-0.99,2.32-1.95,3.7-2.86c0.77-0.54,1.41-0.81,1.92-0.81c0.23,0,0.46,0.32,0.69,0.96
				c0.23,0.64,0.34,1.29,0.34,1.94C187.4,178.39,187.09,178.88,186.46,179.54z"/>
			<path class="st0" d="M210.63,186.48c2.01-1.78,3.74-3.32,5.18-4.64c1.44-1.32,2.57-2.36,3.4-3.11c0.82-0.76,1.55-1.4,2.17-1.92
				c0.63-0.52,1.03-0.79,1.2-0.79c0.33-0.01,0.66,0.33,0.96,1.04c0.31,0.71,0.46,1.27,0.46,1.69c0,0.28-0.46,0.93-1.39,1.96
				s-1.62,1.85-2.08,2.46c-0.46,0.61-0.69,1.25-0.69,1.92c0,0.39,0.13,0.71,0.39,0.95c0.26,0.24,0.58,0.36,0.94,0.36
				c0.42,0,0.93-0.22,1.52-0.66c0.59-0.44,1.52-1.22,2.79-2.34v1.55c-1.27,1.2-2.42,2.23-3.45,3.09c-1.03,0.87-1.93,1.52-2.7,1.94
				c-0.76,0.43-1.4,0.64-1.91,0.64c-0.45,0-0.83-0.17-1.14-0.51c-0.31-0.34-0.46-0.77-0.46-1.28c0-0.5,0.09-1,0.26-1.51
				c0.17-0.51,0.44-1.11,0.81-1.81c0.36-0.7,0.84-1.54,1.44-2.52c0.6-0.98,1.14-1.88,1.64-2.7c-1.49,1.21-2.8,2.38-3.96,3.5
				c-1.15,1.12-2.09,2.1-2.82,2.94c-0.73,0.84-1.3,1.5-1.73,1.98c-0.82,0.9-1.57,1.35-2.27,1.35c-0.76,0-1.14-0.54-1.14-1.62
				c0-0.44,0.28-1.22,0.85-2.35c0.57-1.13,1.38-2.57,2.43-4.32c0.09-0.12,0.13-0.3,0.13-0.55c0-0.29-0.15-0.44-0.44-0.44
				c-0.32,0-0.78,0.3-1.39,0.91c-0.6,0.61-1.77,1.87-3.51,3.79c-0.48,0.54-1.02,1.24-1.63,2.11c-0.6,0.87-1.04,1.45-1.3,1.74
				c-0.26,0.29-0.52,0.44-0.79,0.44c-0.52,0-1.01-0.47-1.46-1.4c-0.45-0.93-0.68-2.02-0.68-3.26c0-0.9,0.15-1.68,0.45-2.34
				c0.3-0.66,0.76-1.47,1.39-2.45c0.98-1.41,1.77-2.42,2.39-3.03c0.62-0.6,1.27-0.91,1.96-0.91c0.42,0,0.78,0.08,1.07,0.25
				c0.29,0.17,0.44,0.4,0.44,0.69c0,0.31-0.27,0.81-0.8,1.51c-0.53,0.7-1.21,1.42-2.02,2.16c-0.44,0.42-0.85,0.94-1.25,1.56
				c-0.39,0.62-0.59,1.07-0.59,1.34c0,0.39,0.15,0.59,0.46,0.59c0.25,0,0.87-0.51,1.88-1.53c1.01-1.02,2.11-2.13,3.31-3.33
				c1.2-1.2,2.32-2.2,3.34-2.99c1.03-0.79,1.9-1.19,2.61-1.19c0.44,0,0.8,0.16,1.08,0.49c0.28,0.33,0.43,0.73,0.43,1.21
				c0,0.32-0.22,0.9-0.66,1.74c-0.44,0.84-1.07,1.87-1.91,3.1C213.04,183.25,211.96,184.74,210.63,186.48z"/>
			<path class="st0" d="M228.83,184.28v0.55c0,0.86,0.21,1.53,0.63,2.01c0.42,0.48,0.98,0.72,1.66,0.72c0.71,0,1.45-0.17,2.22-0.5
				c0.76-0.34,1.53-0.78,2.28-1.33c0.76-0.55,1.68-1.3,2.78-2.23v1.33c-1.65,1.98-3.19,3.5-4.63,4.56
				c-1.44,1.06-2.91,1.58-4.39,1.58c-1.3,0-2.32-0.5-3.08-1.51c-0.76-1.01-1.14-2.38-1.14-4.13c0-1.53,0.36-2.92,1.07-4.16
				c0.71-1.25,1.88-2.56,3.5-3.94c1.11-0.95,2.21-1.66,3.3-2.14c1.09-0.48,2.07-0.72,2.93-0.72c0.68,0,1.23,0.16,1.63,0.47
				c0.4,0.31,0.6,0.78,0.6,1.41c0,0.92-0.34,1.83-1.03,2.74s-1.73,1.81-3.14,2.71C232.62,182.58,230.89,183.45,228.83,184.28z
				 M229.05,182.86c1.31-0.51,2.43-1.14,3.37-1.9c0.93-0.76,1.62-1.48,2.06-2.17c0.44-0.69,0.67-1.2,0.67-1.52
				c0-0.33-0.15-0.5-0.46-0.5c-0.26,0-0.69,0.17-1.28,0.5c-0.59,0.34-1.19,0.77-1.79,1.31c-0.6,0.54-1.15,1.17-1.63,1.9
				C229.51,181.2,229.2,182,229.05,182.86z"/>
			<path class="st0" d="M246.07,172.15h0.94c0.77-1.38,1.47-2.36,2.1-2.94c0.63-0.58,1.34-0.86,2.14-0.86c0.8,0,1.2,0.18,1.2,0.55
				c0,0.18-0.31,0.65-0.94,1.42c-0.63,0.77-1.1,1.42-1.42,1.94c0.5,0.06,0.94,0.11,1.32,0.15c0.39,0.04,0.69,0.08,0.91,0.11
				c-0.83,1.54-1.87,3.12-3.12,4.74c-0.41-0.03-0.75-0.05-1.03-0.08c-0.28-0.02-0.56-0.04-0.84-0.07c-0.28-0.02-0.63-0.05-1.04-0.08
				c-0.79,1.27-1.45,2.4-1.98,3.4c-0.53,1-0.94,1.91-1.22,2.74c-0.28,0.83-0.43,1.62-0.43,2.36c0,1.01,0.4,1.51,1.2,1.51
				c0.55,0,1.28-0.3,2.17-0.89c0.9-0.59,2.09-1.5,3.59-2.72v1.46c-3.93,4.27-6.84,6.4-8.72,6.4c-0.66,0-1.18-0.25-1.58-0.76
				c-0.4-0.51-0.6-1.17-0.6-1.97c0-0.54,0.11-1.18,0.34-1.92c0.23-0.74,0.63-1.86,1.21-3.37c-0.2,0.18-0.4,0.35-0.58,0.51
				c-0.18,0.17-0.35,0.32-0.5,0.46c-0.15,0.14-0.32,0.28-0.49,0.44c-0.17,0.15-0.35,0.31-0.52,0.47v-1.51
				c1.53-1.28,3.38-3.53,5.55-6.75c-0.22-0.01-0.42-0.03-0.61-0.03c-0.19-0.01-0.42-0.01-0.68-0.01c-0.86,0-1.5,0.06-1.92,0.17
				c-0.17,0.04-0.34,0.09-0.49,0.14c-0.15,0.05-0.26,0.08-0.32,0.08s-0.09-0.04-0.09-0.13c0-0.48,0.3-1.2,0.9-2.16
				c0.48-0.82,0.94-1.42,1.37-1.81c0.43-0.39,0.95-0.66,1.57-0.8C244.08,172.22,244.95,172.15,246.07,172.15z"/>
			<path class="st0" d="M290.93,162.84v1.49c0,0.61-0.12,1-0.36,1.16c-0.24,0.16-1.12,0.59-2.64,1.29c-1.52,0.7-2.98,1.52-4.38,2.47
				c0.54-0.79,1.03-1.37,1.48-1.75c0.44-0.38,1.05-0.85,1.8-1.42c-0.66-0.26-1.57-0.39-2.73-0.39c-1.81,0-3.76,0.36-5.85,1.07
				c-2.09,0.71-3.87,1.57-5.33,2.56c-1.46,0.99-2.2,1.82-2.2,2.49c0,0.35,0.22,0.64,0.67,0.86c0.44,0.23,1.16,0.4,2.14,0.52
				c0.98,0.12,2.21,0.21,3.68,0.25c1.47,0.04,3.29,0.07,5.44,0.07c1.57,0,2.59,0.06,3.04,0.17c0.45,0.12,0.68,0.39,0.68,0.81
				c0,0.54-0.27,1.15-0.8,1.85c-0.53,0.69-1.23,1.1-2.11,1.23c-1.36,0.22-2.43,0.4-3.23,0.56c-0.8,0.15-1.75,0.41-2.85,0.78
				c-1.1,0.36-2.32,0.89-3.66,1.57c-2,1.05-3.55,2.11-4.68,3.19c-1.12,1.08-1.68,2.03-1.68,2.86c0,0.71,0.4,1.27,1.2,1.67
				c0.8,0.4,1.95,0.6,3.45,0.6c5.17,0,10.44-2.32,15.8-6.97c0.03,1.43-0.13,2.68-0.47,3.77c-0.34,1.09-1.04,2.12-2.09,3.11
				c-0.87,0.83-2.15,1.62-3.84,2.38c-1.68,0.76-3.52,1.36-5.51,1.81c-1.99,0.45-3.86,0.68-5.6,0.68c-2.02,0-3.7-0.48-5.03-1.45
				c-1.33-0.97-1.99-2.25-1.99-3.86c0-1.17,0.32-2.32,0.96-3.47c0.64-1.15,1.62-2.25,2.95-3.31c1.33-1.06,3-2.01,5.04-2.87
				c2.03-0.86,4.37-1.54,7.03-2.03c0.38-0.07,0.57-0.19,0.57-0.35c0-0.17-0.22-0.28-0.67-0.32c-0.44-0.04-1.26-0.06-2.45-0.08
				c-1.19-0.01-2.23-0.07-3.14-0.15c-0.9-0.09-1.86-0.28-2.86-0.57c-1.03-0.32-1.83-0.88-2.39-1.68c-0.56-0.8-0.84-1.69-0.84-2.67
				c0-1.25,0.45-2.51,1.35-3.78c0.9-1.27,2.18-2.41,3.82-3.43c1.65-1.02,3.64-1.84,5.98-2.46c2.34-0.62,4.9-0.93,7.68-0.93
				c1.6,0,2.72,0.09,3.35,0.27c0.63,0.18,1,0.42,1.1,0.72C290.88,161.47,290.93,162.03,290.93,162.84z"/>
			<path class="st0" d="M293.99,183.49v-5.16c-0.54,0.13-1.05,0.36-1.54,0.7c-0.49,0.34-1.01,0.75-1.55,1.25
				c-0.55,0.5-0.89,0.74-1.02,0.74c-0.16,0-0.24-0.21-0.24-0.63c0-0.42,0.43-1.17,1.3-2.24c0.87-1.07,1.82-2.06,2.87-2.97
				c1.05-0.91,1.81-1.37,2.27-1.37c0.28,0,0.52,0.16,0.72,0.48c0.2,0.32,0.31,0.76,0.31,1.31c0,0.36-0.01,0.7-0.02,1
				c-0.01,0.31-0.03,0.71-0.04,1.22c-0.01,0.51-0.04,1.25-0.07,2.21c3.22-3.44,5.13-5.16,5.72-5.16c0.18,0,0.32,0.07,0.43,0.21
				c0.11,0.14,0.16,0.31,0.16,0.51c0,0.48-0.39,1.22-1.17,2.22s-1.3,1.5-1.56,1.5c-0.36,0-0.65-0.06-0.85-0.18l-2.78,3.54
				c0.03,1.28,0.14,2.24,0.34,2.86c0.2,0.63,0.55,0.94,1.06,0.94c0.44,0,0.95-0.22,1.53-0.66c0.58-0.44,1.53-1.24,2.84-2.42v1.51
				c-2.99,4.12-5.1,6.18-6.34,6.18c-0.77,0-1.32-0.41-1.65-1.22c-0.33-0.82-0.54-2.07-0.64-3.76c-0.51,0.52-1.11,1.16-1.79,1.9
				c-0.68,0.74-1.18,1.27-1.5,1.58c-0.31,0.31-0.6,0.57-0.85,0.78c-0.26,0.2-0.48,0.31-0.69,0.31c-0.2,0-0.31-0.18-0.31-0.52
				c0-0.58,0.31-1.38,0.93-2.4c0.62-1.02,1.07-1.53,1.34-1.53c0.03,0,0.15,0.03,0.35,0.09L293.99,183.49z"/>
			<path class="st0" d="M313.2,183.25v1.62c-3.04,4.03-5.52,6.05-7.43,6.05c-1.03,0-1.85-0.56-2.44-1.69s-0.89-2.61-0.89-4.45
				c0-1.49,0.35-3.25,1.05-5.3c0.7-2.05,1.64-4.12,2.81-6.23c1.17-2.1,2.39-3.94,3.65-5.51s2.43-2.66,3.51-3.29
				c0.44-0.26,0.78-0.39,1.03-0.39c0.31,0,0.51,0.13,0.61,0.4c0.1,0.27,0.15,0.73,0.15,1.39c0,2.02-0.82,4.51-2.47,7.46
				c-1.65,2.95-3.94,5.96-6.88,9.04c-0.15,0.76-0.22,1.34-0.22,1.75c0,0.93,0.2,1.69,0.6,2.27c0.4,0.58,0.96,0.87,1.67,0.87
				c0.36,0,0.76-0.14,1.18-0.43c0.42-0.28,0.87-0.64,1.33-1.06C310.93,185.34,311.84,184.5,313.2,183.25z M306.67,179.32
				c0.76-0.74,1.49-1.59,2.2-2.53s1.37-1.96,2-3.04c0.63-1.08,1.12-2.05,1.47-2.91c0.36-0.86,0.54-1.51,0.54-1.95
				c0-0.33-0.12-0.5-0.35-0.5c-0.09,0-0.25,0.08-0.5,0.24c-0.89,0.73-1.89,2.15-2.99,4.27
				C307.92,175.02,307.13,177.16,306.67,179.32z"/>
			<path class="st0" d="M327.05,183.45v1.46c-0.96,0.87-1.73,1.46-2.32,1.75c-0.58,0.29-1.42,0.41-2.51,0.35
				c-1.89,2.24-3.56,3.37-5,3.37c-0.82,0-1.56-0.27-2.23-0.81c-0.67-0.54-1.21-1.27-1.61-2.21c-0.4-0.93-0.6-1.97-0.6-3.12
				c0-0.93,0.31-1.97,0.93-3.1c0.62-1.14,1.42-2.2,2.4-3.18c0.98-0.98,2.04-1.78,3.16-2.38c1.12-0.6,2.16-0.91,3.12-0.91
				c0.68,0,1.22,0.11,1.62,0.32c0.39,0.21,0.59,0.51,0.59,0.88c0,0.29-0.17,0.63-0.5,1.01c0.55,0.12,0.93,0.31,1.14,0.58
				c0.2,0.27,0.31,0.76,0.31,1.47c0,0.7-0.16,1.58-0.49,2.64c-0.33,1.06-0.78,2.06-1.34,2.99l0.39,0.39h0.33
				c0.25,0,0.49-0.06,0.73-0.19s0.46-0.25,0.64-0.39C326,184.24,326.41,183.93,327.05,183.45z M322.55,177.7
				c-1.21,0.73-2.24,1.39-3.1,1.98c-0.86,0.59-1.59,1.19-2.19,1.79c-0.6,0.61-1,1.21-1.2,1.82c-0.36,1.63-0.55,2.51-0.55,2.64
				c0,0.96,0.67,1.44,2.01,1.44c0.63,0,1.67-0.54,3.15-1.62c-0.25-0.68-0.37-1.34-0.37-1.97c0-0.92,0.19-1.85,0.57-2.81
				C321.25,180.04,321.81,178.94,322.55,177.7z"/>
			<path class="st0" d="M341.06,183.45v1.46c-0.96,0.87-1.73,1.46-2.32,1.75c-0.58,0.29-1.42,0.41-2.51,0.35
				c-1.89,2.24-3.56,3.37-5,3.37c-0.82,0-1.56-0.27-2.23-0.81c-0.67-0.54-1.21-1.27-1.61-2.21c-0.4-0.93-0.6-1.97-0.6-3.12
				c0-0.93,0.31-1.97,0.93-3.1c0.62-1.14,1.42-2.2,2.4-3.18c0.98-0.98,2.04-1.78,3.16-2.38c1.12-0.6,2.16-0.91,3.12-0.91
				c0.68,0,1.22,0.11,1.62,0.32c0.39,0.21,0.59,0.51,0.59,0.88c0,0.29-0.17,0.63-0.5,1.01c0.55,0.12,0.93,0.31,1.14,0.58
				c0.2,0.27,0.31,0.76,0.31,1.47c0,0.7-0.16,1.58-0.49,2.64c-0.33,1.06-0.78,2.06-1.34,2.99l0.39,0.39h0.33
				c0.25,0,0.49-0.06,0.73-0.19c0.24-0.12,0.46-0.25,0.64-0.39C340,184.24,340.42,183.93,341.06,183.45z M336.56,177.7
				c-1.21,0.73-2.24,1.39-3.1,1.98c-0.86,0.59-1.59,1.19-2.19,1.79c-0.6,0.61-1,1.21-1.2,1.82c-0.36,1.63-0.55,2.51-0.55,2.64
				c0,0.96,0.67,1.44,2.01,1.44c0.63,0,1.67-0.54,3.15-1.62c-0.25-0.68-0.37-1.34-0.37-1.97c0-0.92,0.19-1.85,0.57-2.81
				C335.25,180.04,335.82,178.94,336.56,177.7z"/>
		</g>
		<g>
			<path class="st0" d="M127.44,179.1c1.4-1.85,1.6-3.1,1.34-4.01c-0.33-1.15-1.3-1.38-2.91-2.67c-2.27-1.81-2.04-2.68-4.73-5.58
				c-1.72-1.86-2.77-2.99-4.37-3.88c-2.99-1.67-4.76-0.77-8.86-1.46c-0.9-0.15-1.54-0.32-2.11-0.52c-0.86-0.32-4.72-2.32-7.85-3.49
				c-4.32-1.61-7.98-2.55-11.05-3.16c-0.83-0.16-4.78-0.91-9.83-0.61c-0.91,0.06-2.19,0.54-4.73,1.34
				c-8.98,2.79-9.77,3.69-10.12,4.54c-0.36,0.87-0.04,2.45,0.61,5.62c0.09,0.44,0.49,2.34,1.33,4.8c0.47,2.17,1.31,3.61,1.94,4.49
				c2.1,2.93,4.72,3.54,7.53,4.9c-1.16,1.79-2.4,3.75-2.95,4.55c-1.16,1.67-1.12,0.85-3.23,3.36c-2.89,3.43-2.09,3.93-5.23,8.25
				c-0.94,1.3-1.7,2.2-1.39,3.01c0.22,0.57,0.91,0.96,2.84,1.28c2.91,0.48,4.97,0.17,7.94-0.1c0.25-0.02,0.48-0.04,0.7-0.06
				c2.06-0.17,3.23-0.21,3.96-0.27c0,0,0,0,0,0c0.05,0,0.09-0.01,0.14-0.01c0.01,0,0.02,0,0.03,0c0.03,0,0.07-0.01,0.1-0.01
				c0.01,0,0.03,0,0.04,0c0.03,0,0.05-0.01,0.08-0.01c0.02,0,0.03,0,0.05-0.01c0.02,0,0.04-0.01,0.06-0.01
				c0.02,0,0.03-0.01,0.05-0.01c0.02,0,0.04-0.01,0.05-0.01c0.02,0,0.03-0.01,0.05-0.01c0.02,0,0.03-0.01,0.05-0.01
				c0.02,0,0.03-0.01,0.05-0.01c0.01,0,0.03-0.01,0.04-0.01c0.02,0,0.03-0.01,0.05-0.01c0.01,0,0.03-0.01,0.04-0.01
				c0.01,0,0.03-0.01,0.04-0.01c0.01,0,0.02-0.01,0.04-0.01c0.01-0.01,0.03-0.01,0.04-0.02c0.01,0,0.02-0.01,0.03-0.01
				c0.01-0.01,0.03-0.01,0.04-0.02c0.01-0.01,0.02-0.01,0.03-0.02c0.01-0.01,0.02-0.01,0.04-0.02c0.01-0.01,0.02-0.01,0.03-0.02
				c0.01-0.01,0.02-0.01,0.03-0.02c0.01-0.01,0.02-0.01,0.03-0.02c0.01-0.01,0.02-0.01,0.03-0.02c0.01-0.01,0.02-0.02,0.04-0.03
				c0.01-0.01,0.02-0.01,0.03-0.02c0.01-0.01,0.03-0.02,0.04-0.03c0.01-0.01,0.01-0.01,0.02-0.02c0.02-0.02,0.04-0.04,0.07-0.06
				c1.35-1.23,0.52-2.64,0.91-8.11c0.1-1.36,0.35-4.11,0.46-7.16c1.12,1.4,1.35,2.09,2.41,2.78c0.01,0.01,0.02,0.01,0.03,0.02
				c0.08,0.05,0.17,0.11,0.27,0.16c0.39,0.22,0.78,0.39,1.18,0.52c-0.56,1.52-1.24,3.67-2.1,6.76c-0.7,2.54-1.16,4.4-0.32,5.21
				c0.04,0.04,0.09,0.09,0.14,0.12c0.48,0.35,1.08,0.28,1.99,0.19c6.37-0.6,7.52,0.01,8.77-1.13c0.43-0.39,0.71-1.27,1.28-3.04
				c0.57-1.75,1.09-3.98,1.17-6.66c0-0.11,0.01-0.22,0.01-0.33c0-0.03,0-0.06,0-0.09c0-0.08,0-0.16,0.01-0.24c0-0.03,0-0.06,0-0.09
				c0-0.08,0-0.16,0-0.23c0-0.02,0-0.04,0-0.06c0-0.67-0.03-1.17-0.16-1.62c2.62-0.33,4.71,0.08,6.71,0.68
				c-0.15,0.61-0.3,1.29-0.46,2.06c-0.36,1.76-0.81,4.26-1.14,7.32c-0.26,0.83-0.35,1.1-0.23,1.46c0.26,0.75,1.25,1.35,2.52,1.69
				l0,0c0,0,0,0,0,0c0.41,0.11,0.85,0.19,1.3,0.24c0.01,0,0.02,0,0.03,0c0.14,0.02,0.29,0.03,0.43,0.04c0.01,0,0.01,0,0.02,0
				c0.3,0.02,0.6,0.02,0.9,0.01c0.02,0,0.03,0,0.05,0c0.13-0.01,0.25-0.01,0.38-0.02c0.03,0,0.06-0.01,0.09-0.01
				c0.12-0.01,0.24-0.03,0.36-0.04c0.02,0,0.04-0.01,0.06-0.01c0.14-0.02,0.28-0.05,0.42-0.08c0.01,0,0.02,0,0.03-0.01
				c0.12-0.03,0.24-0.06,0.36-0.09c0.04-0.01,0.07-0.02,0.11-0.03c0.09-0.03,0.18-0.06,0.27-0.09c0.04-0.01,0.07-0.03,0.11-0.04
				c0.1-0.04,0.2-0.08,0.29-0.12c0.02-0.01,0.04-0.02,0.06-0.03c0.11-0.05,0.22-0.11,0.32-0.17c0.03-0.02,0.05-0.03,0.08-0.05
				c0.08-0.05,0.15-0.1,0.22-0.15c0.03-0.02,0.06-0.05,0.09-0.07c0.07-0.05,0.13-0.11,0.19-0.16c0.03-0.02,0.05-0.05,0.08-0.07
				c0.08-0.08,0.16-0.17,0.23-0.26c0.67-0.87,0.64-2.13,0.57-4.64c-0.01-0.52-0.03-0.4-0.62-4.59c-0.01-0.04-0.01-0.07-0.02-0.11
				c1.82,0.23,3.87,0.2,6.37-0.37c0,0,6.32-1.45,11.6-6.92c0.02-0.02,0.03-0.04,0.05-0.05c0.18-0.19,0.36-0.38,0.54-0.58
				c0.03-0.04,0.07-0.08,0.1-0.11c0.16-0.18,0.32-0.37,0.48-0.56c0.04-0.05,0.09-0.1,0.13-0.15
				C127.06,179.59,127.25,179.35,127.44,179.1z"/>
			<path class="st0" d="M125.19,196.05c0.77-1.19,0.46-2.9-0.13-3.9c-1.11-1.88-3.56-1.9-4.82-1.91c-1.69-0.01-2.91,0.52-3.27,0.69
				c-0.28,0.13-1.64,0.77-2.55,1.64c-0.14-0.14-0.27-0.22-0.36-0.22c-0.86-0.03-1.73,1.15-3.46,3.5c-1.1,1.49-1.64,2.25-1.47,2.84
				c0.12,0.41,0.56,0.71,3.84,0.89c4.68,0.25,5.03-0.3,5.12-0.53c0.11-0.29-0.04-0.66-0.38-1.28c1.27,0.23,2.49,0.38,3.21,0.47
				c2.31,0.28,5.43,0.66,5.73-0.24C126.82,197.49,126.08,196.74,125.19,196.05z"/>
		</g>
	</g>
</g>
</svg>
