<svg id="Laag_1" data-name="Laag 1" xmlns="http://www.w3.org/2000/svg" viewBox="0 0 108.96 74.29"><defs><style>.cls-1{fill:#122824;}</style></defs><path class="cls-1" d="M106.67,40.7c2.25-3,2.56-5,2.14-6.41-.54-1.84-2.08-2.21-4.66-4.27-3.63-2.9-3.27-4.29-7.57-8.93-2.76-3-4.44-4.78-7-6.21C84.81,12.2,82,13.65,75.42,12.55a19.22,19.22,0,0,1-3.37-.83C70.66,11.19,64.49,8,59.49,6.14a113,113,0,0,0-17.67-5,64.13,64.13,0,0,0-15.73-1c-1.45.09-3.5.87-7.57,2.14C4.15,6.71,2.9,8.16,2.34,9.51s-.06,3.92,1,9a64.35,64.35,0,0,0,2.12,7.68,19.18,19.18,0,0,0,3.1,7.19c3.36,4.69,7.55,5.67,12.05,7.83-1.85,2.87-3.84,6-4.72,7.28-1.85,2.67-1.79,1.36-5.16,5.37C6.09,59.33,7.37,60.13,2.34,67,.83,69.11-.38,70.55.12,71.86c.35.91,1.45,1.54,4.55,2,4.66.76,7.94.27,12.7-.16l1.13-.1c3.3-.28,5.17-.34,6.34-.44h0l.22,0h.05l.16,0h.06l.13,0h.33l.08,0,.07,0L26,73l.07,0,.07,0,.06,0,.07,0,.06,0,.07,0,.05,0,.06,0,.05,0,.06,0,.05,0,.06,0,0,0,.05,0,.06,0,0,0,.07-.06,0,0,.11-.09c2.16-2,.83-4.23,1.45-13,.15-2.17.56-6.57.74-11.46,1.8,2.25,2.15,3.35,3.85,4.44l0,0,.43.26a11.26,11.26,0,0,0,1.89.84c-.9,2.43-2,5.87-3.36,10.82-1.13,4.07-1.85,7-.51,8.33a1.5,1.5,0,0,0,.23.2c.77.55,1.73.44,3.18.3,10.19-1,12,0,14-1.81.68-.63,1.14-2,2.05-4.87a38.19,38.19,0,0,0,1.88-10.65c0-.18,0-.36,0-.53v-.15c0-.13,0-.26,0-.38v-.14c0-.13,0-.25,0-.37v-.1a9.34,9.34,0,0,0-.25-2.6,24.55,24.55,0,0,1,10.73,1.09c-.24,1-.48,2.06-.73,3.29-.58,2.81-1.3,6.81-1.83,11.71-.41,1.33-.56,1.76-.37,2.34.41,1.21,2,2.16,4,2.7h0a13.67,13.67,0,0,0,2.08.39h0l.69.06h0a13.84,13.84,0,0,0,1.44,0h.08l.6,0h.14l.58-.07h.1c.23,0,.45-.08.67-.12h0l.57-.14.17,0,.44-.14.18-.06.46-.2.1,0,.52-.28.13-.08.35-.24.15-.12.3-.26.13-.12a4.72,4.72,0,0,0,.37-.41c1.08-1.39,1-3.4.91-7.42,0-.84,0-.65-1-7.34l0-.17a28.39,28.39,0,0,0,10.19-.59,41.58,41.58,0,0,0,18.56-11.07l.08-.09c.29-.3.57-.61.86-.92l.17-.18c.26-.29.51-.59.77-.89l.21-.24C106.06,41.48,106.37,41.09,106.67,40.7Z" transform="translate(-0.01 0)"/><path class="cls-1" d="M103.07,67.81c1.23-1.91.73-4.64-.21-6.24-1.77-3-5.7-3-7.71-3a12.44,12.44,0,0,0-5.23,1.1,16.32,16.32,0,0,0-4.07,2.62,1,1,0,0,0-.58-.35c-1.37,0-2.76,1.83-5.53,5.59C78,69.86,77.11,71.08,77.39,72c.19.66.89,1.14,6.14,1.42,7.48.4,8-.48,8.19-.85s-.06-1.06-.61-2c2,.37,4,.61,5.14.75,3.7.45,8.68,1.06,9.17-.39C105.67,70.12,104.49,68.92,103.07,67.81Z" transform="translate(-0.01 0)"/></svg>